<svg width="19" height="19" viewBox="0 0 19 19" fill="none" xmlns="http://www.w3.org/2000/svg">
<path d="M4.08333 14.9167H7.41667M14.0833 14.9242V14.9167M0.75 4.08333C0.75 1.325 1.325 0.75 4.08333 0.75H14.0833C16.8417 0.75 17.4167 1.325 17.4167 4.08333V14.0833C17.4167 16.8417 16.8417 17.4167 14.0833 17.4167H4.08333C1.325 17.4167 0.75 16.8417 0.75 14.0833V4.08333Z" stroke="#101828" stroke-width="1.5" stroke-linecap="round" stroke-linejoin="round"/>
<path d="M9.08333 10.75C10.9243 10.75 12.4167 9.2576 12.4167 7.41665C12.4167 5.5757 10.9243 4.08331 9.08333 4.08331C7.24238 4.08331 5.75 5.5757 5.75 7.41665C5.75 9.2576 7.24238 10.75 9.08333 10.75Z" stroke="#101828" stroke-width="1.5" stroke-linecap="round" stroke-linejoin="round"/>
<path d="M12 7.41667H13.25M9.08332 10.3333V11.5833M6.16666 7.41667H4.91666M9.08332 4.5V3.25" stroke="#101828" stroke-width="1.5" stroke-linecap="round" stroke-linejoin="round"/>
</svg>
