<svg width="360" height="88" viewBox="0 0 360 88" fill="none" xmlns="http://www.w3.org/2000/svg">
<path d="M1.40909 18V6.36364H2.81818V16.75H8.22727V18H1.40909ZM13.7727 18.1818C12.9848 18.1818 12.2936 17.9943 11.6989 17.6193C11.108 17.2443 10.6458 16.7197 10.3125 16.0455C9.98295 15.3712 9.81818 14.5833 9.81818 13.6818C9.81818 12.7727 9.98295 11.9792 10.3125 11.3011C10.6458 10.6231 11.108 10.0966 11.6989 9.72159C12.2936 9.34659 12.9848 9.15909 13.7727 9.15909C14.5606 9.15909 15.25 9.34659 15.8409 9.72159C16.4356 10.0966 16.8977 10.6231 17.2273 11.3011C17.5606 11.9792 17.7273 12.7727 17.7273 13.6818C17.7273 14.5833 17.5606 15.3712 17.2273 16.0455C16.8977 16.7197 16.4356 17.2443 15.8409 17.6193C15.25 17.9943 14.5606 18.1818 13.7727 18.1818ZM13.7727 16.9773C14.3712 16.9773 14.8636 16.8239 15.25 16.517C15.6364 16.2102 15.9223 15.8068 16.108 15.3068C16.2936 14.8068 16.3864 14.2652 16.3864 13.6818C16.3864 13.0985 16.2936 12.5549 16.108 12.0511C15.9223 11.5473 15.6364 11.1402 15.25 10.8295C14.8636 10.5189 14.3712 10.3636 13.7727 10.3636C13.1742 10.3636 12.6818 10.5189 12.2955 10.8295C11.9091 11.1402 11.6231 11.5473 11.4375 12.0511C11.2519 12.5549 11.1591 13.0985 11.1591 13.6818C11.1591 14.2652 11.2519 14.8068 11.4375 15.3068C11.6231 15.8068 11.9091 16.2102 12.2955 16.517C12.6818 16.8239 13.1742 16.9773 13.7727 16.9773ZM23.3196 18.1818C22.5014 18.1818 21.7969 17.9886 21.206 17.6023C20.6151 17.2159 20.1605 16.6837 19.8423 16.0057C19.5241 15.3277 19.3651 14.553 19.3651 13.6818C19.3651 12.7955 19.5279 12.0133 19.8537 11.3352C20.1832 10.6534 20.6416 10.1212 21.2287 9.73864C21.8196 9.35227 22.509 9.15909 23.2969 9.15909C23.9105 9.15909 24.4635 9.27273 24.956 9.5C25.4484 9.72727 25.8518 10.0455 26.1662 10.4545C26.4806 10.8636 26.6757 11.3409 26.7514 11.8864H25.4105C25.3082 11.4886 25.081 11.1364 24.7287 10.8295C24.3802 10.5189 23.9105 10.3636 23.3196 10.3636C22.7969 10.3636 22.3385 10.5 21.9446 10.7727C21.5545 11.0417 21.2495 11.4223 21.0298 11.9148C20.8139 12.4034 20.706 12.9773 20.706 13.6364C20.706 14.3106 20.812 14.8977 21.0241 15.3977C21.2401 15.8977 21.5431 16.286 21.9332 16.5625C22.3272 16.839 22.7893 16.9773 23.3196 16.9773C23.6681 16.9773 23.9844 16.9167 24.2685 16.7955C24.5526 16.6742 24.7931 16.5 24.9901 16.2727C25.187 16.0455 25.3272 15.7727 25.4105 15.4545H26.7514C26.6757 15.9697 26.4882 16.4337 26.1889 16.8466C25.8935 17.2557 25.5014 17.5814 25.0128 17.8239C24.5279 18.0625 23.9635 18.1818 23.3196 18.1818ZM31.2798 18.2045C30.7268 18.2045 30.2249 18.1004 29.7741 17.892C29.3234 17.6799 28.9654 17.375 28.7003 16.9773C28.4351 16.5758 28.3026 16.0909 28.3026 15.5227C28.3026 15.0227 28.401 14.6174 28.598 14.3068C28.795 13.9924 29.0582 13.7462 29.3878 13.5682C29.7173 13.3902 30.081 13.2576 30.4787 13.1705C30.8802 13.0795 31.2836 13.0076 31.6889 12.9545C32.2192 12.8864 32.6491 12.8352 32.9787 12.8011C33.312 12.7633 33.5545 12.7008 33.706 12.6136C33.8613 12.5265 33.9389 12.375 33.9389 12.1591V12.1136C33.9389 11.553 33.7855 11.1174 33.4787 10.8068C33.1757 10.4962 32.7154 10.3409 32.098 10.3409C31.4579 10.3409 30.956 10.4811 30.5923 10.7614C30.2287 11.0417 29.973 11.3409 29.8253 11.6591L28.5526 11.2045C28.7798 10.6742 29.0829 10.2614 29.4616 9.96591C29.8442 9.66667 30.2609 9.45833 30.7116 9.34091C31.1662 9.2197 31.6132 9.15909 32.0526 9.15909C32.3329 9.15909 32.6548 9.19318 33.0185 9.26136C33.3859 9.32576 33.7401 9.46023 34.081 9.66477C34.4257 9.86932 34.7116 10.178 34.9389 10.5909C35.1662 11.0038 35.2798 11.5568 35.2798 12.25V18H33.9389V16.8182H33.8707C33.7798 17.0076 33.6283 17.2102 33.4162 17.4261C33.2041 17.642 32.9219 17.8258 32.5696 17.9773C32.2173 18.1288 31.7874 18.2045 31.2798 18.2045ZM31.4844 17C32.0147 17 32.4616 16.8958 32.8253 16.6875C33.1927 16.4792 33.4692 16.2102 33.6548 15.8807C33.8442 15.5511 33.9389 15.2045 33.9389 14.8409V13.6136C33.8821 13.6818 33.7571 13.7443 33.5639 13.8011C33.3745 13.8542 33.1548 13.9015 32.9048 13.9432C32.6586 13.9811 32.4181 14.0152 32.1832 14.0455C31.9522 14.072 31.7647 14.0947 31.6207 14.1136C31.2723 14.1591 30.9465 14.233 30.6435 14.3352C30.3442 14.4337 30.1018 14.5833 29.9162 14.7841C29.7344 14.9811 29.6435 15.25 29.6435 15.5909C29.6435 16.0568 29.8158 16.4091 30.1605 16.6477C30.509 16.8826 30.9503 17 31.4844 17ZM41.5227 9.27273V10.4091H37V9.27273H41.5227ZM38.3182 7.18182H39.6591V15.5C39.6591 15.8788 39.714 16.1629 39.8239 16.3523C39.9375 16.5379 40.0814 16.6629 40.2557 16.7273C40.4337 16.7879 40.6212 16.8182 40.8182 16.8182C40.9659 16.8182 41.0871 16.8106 41.1818 16.7955C41.2765 16.7765 41.3523 16.7614 41.4091 16.75L41.6818 17.9545C41.5909 17.9886 41.464 18.0227 41.3011 18.0568C41.1383 18.0947 40.9318 18.1136 40.6818 18.1136C40.303 18.1136 39.9318 18.0322 39.5682 17.8693C39.2083 17.7064 38.9091 17.4583 38.6705 17.125C38.4356 16.7917 38.3182 16.3712 38.3182 15.8636V7.18182ZM43.5398 18V9.27273H44.8807V18H43.5398ZM44.2216 7.81818C43.9602 7.81818 43.7348 7.72917 43.5455 7.55114C43.3598 7.37311 43.267 7.15909 43.267 6.90909C43.267 6.65909 43.3598 6.44508 43.5455 6.26705C43.7348 6.08902 43.9602 6 44.2216 6C44.483 6 44.7064 6.08902 44.892 6.26705C45.0814 6.44508 45.1761 6.65909 45.1761 6.90909C45.1761 7.15909 45.0814 7.37311 44.892 7.55114C44.7064 7.72917 44.483 7.81818 44.2216 7.81818ZM50.8821 18.1818C50.0942 18.1818 49.4029 17.9943 48.8082 17.6193C48.2173 17.2443 47.7552 16.7197 47.4219 16.0455C47.0923 15.3712 46.9276 14.5833 46.9276 13.6818C46.9276 12.7727 47.0923 11.9792 47.4219 11.3011C47.7552 10.6231 48.2173 10.0966 48.8082 9.72159C49.4029 9.34659 50.0942 9.15909 50.8821 9.15909C51.67 9.15909 52.3594 9.34659 52.9503 9.72159C53.545 10.0966 54.0071 10.6231 54.3366 11.3011C54.67 11.9792 54.8366 12.7727 54.8366 13.6818C54.8366 14.5833 54.67 15.3712 54.3366 16.0455C54.0071 16.7197 53.545 17.2443 52.9503 17.6193C52.3594 17.9943 51.67 18.1818 50.8821 18.1818ZM50.8821 16.9773C51.4806 16.9773 51.973 16.8239 52.3594 16.517C52.7457 16.2102 53.0317 15.8068 53.2173 15.3068C53.4029 14.8068 53.4957 14.2652 53.4957 13.6818C53.4957 13.0985 53.4029 12.5549 53.2173 12.0511C53.0317 11.5473 52.7457 11.1402 52.3594 10.8295C51.973 10.5189 51.4806 10.3636 50.8821 10.3636C50.2836 10.3636 49.7912 10.5189 49.4048 10.8295C49.0185 11.1402 48.7325 11.5473 48.5469 12.0511C48.3613 12.5549 48.2685 13.0985 48.2685 13.6818C48.2685 14.2652 48.3613 14.8068 48.5469 15.3068C48.7325 15.8068 49.0185 16.2102 49.4048 16.517C49.7912 16.8239 50.2836 16.9773 50.8821 16.9773ZM58.2244 12.75V18H56.8835V9.27273H58.179V10.6364H58.2926C58.4972 10.1932 58.8078 9.83712 59.2244 9.56818C59.6411 9.29545 60.179 9.15909 60.8381 9.15909C61.429 9.15909 61.946 9.2803 62.3892 9.52273C62.8324 9.76136 63.1771 10.125 63.4233 10.6136C63.6695 11.0985 63.7926 11.7121 63.7926 12.4545V18H62.4517V12.5455C62.4517 11.8598 62.2737 11.3258 61.9176 10.9432C61.5616 10.5568 61.0729 10.3636 60.4517 10.3636C60.0237 10.3636 59.6411 10.4564 59.304 10.642C58.9706 10.8277 58.7074 11.0985 58.5142 11.4545C58.321 11.8106 58.2244 12.2424 58.2244 12.75Z" fill="#6C717B"/>
<rect y="32" width="360" height="56" rx="12" fill="#F7F7F7"/>
<g clip-path="url(#clip0_12176_504)">
<path fill-rule="evenodd" clip-rule="evenodd" d="M39.7712 50.141C39.8428 50.1997 39.9005 50.2735 39.94 50.3572C39.9796 50.4408 40.0001 50.5322 40 50.6248V68.1248C39.9999 68.2692 39.9498 68.4092 39.8582 68.5208C39.7666 68.6325 39.6391 68.709 39.4975 68.7373L33.2475 69.9873C33.1666 70.0034 33.0834 70.0034 33.0025 69.9873L26.875 68.7623L20.7475 69.9873C20.6569 70.0054 20.5633 70.0032 20.4737 69.9808C20.384 69.9584 20.3004 69.9164 20.2289 69.8578C20.1574 69.7993 20.0998 69.7255 20.0602 69.642C20.0206 69.5585 20.0001 69.4672 20 69.3748V51.8748C20.0001 51.7303 20.0502 51.5904 20.1418 51.4787C20.2334 51.3671 20.3609 51.2906 20.5025 51.2623L26.7525 50.0123C26.8334 49.9961 26.9166 49.9961 26.9975 50.0123L33.125 51.2373L39.2525 50.0123C39.3431 49.994 39.4366 49.9961 39.5263 50.0184C39.616 50.0407 39.6997 50.0825 39.7712 50.141ZM32.5 52.3873L27.5 51.3873V67.6123L32.5 68.6123V52.3873ZM33.75 68.6123L38.75 67.6123V51.3873L33.75 52.3873V68.6123ZM26.25 67.6123V51.3873L21.25 52.3873V68.6123L26.25 67.6123Z" fill="#101828"/>
</g>
<path d="M49.4091 66V54.3636H50.8182V60.1364H50.9545L56.1818 54.3636H58.0227L53.1364 59.6136L58.0227 66H56.3182L52.2727 60.5909L50.8182 62.2273V66H49.4091ZM59.8878 69.2727C59.6605 69.2727 59.4579 69.2538 59.2798 69.2159C59.1018 69.1818 58.9787 69.1477 58.9105 69.1136L59.2514 67.9318C59.5772 68.0152 59.8651 68.0455 60.1151 68.0227C60.3651 68 60.5866 67.8883 60.7798 67.6875C60.9768 67.4905 61.1567 67.1705 61.3196 66.7273L61.5696 66.0455L58.3423 57.2727H59.7969L62.206 64.2273H62.2969L64.706 57.2727H66.1605L62.456 67.2727C62.2893 67.7235 62.0829 68.0966 61.8366 68.392C61.5904 68.6913 61.3045 68.9129 60.9787 69.0568C60.6567 69.2008 60.2931 69.2727 59.8878 69.2727ZM67.9304 66V57.2727H69.2713V66H67.9304ZM68.6122 55.8182C68.3509 55.8182 68.1255 55.7292 67.9361 55.5511C67.7505 55.3731 67.6577 55.1591 67.6577 54.9091C67.6577 54.6591 67.7505 54.4451 67.9361 54.267C68.1255 54.089 68.3509 54 68.6122 54C68.8736 54 69.0971 54.089 69.2827 54.267C69.4721 54.4451 69.5668 54.6591 69.5668 54.9091C69.5668 55.1591 69.4721 55.3731 69.2827 55.5511C69.0971 55.7292 68.8736 55.8182 68.6122 55.8182ZM78.8636 57.2727L75.6364 66H74.2727L71.0455 57.2727H72.5L74.9091 64.2273H75L77.4091 57.2727H78.8636ZM82.0866 64.4091L81.9957 65.0227C81.9313 65.4545 81.8329 65.9167 81.7003 66.4091C81.5715 66.9015 81.437 67.3655 81.2969 67.8011C81.1567 68.2367 81.0412 68.5833 80.9503 68.8409H79.9276C79.9768 68.5985 80.0412 68.2784 80.1207 67.8807C80.2003 67.483 80.2798 67.0379 80.3594 66.5455C80.4427 66.0568 80.5109 65.5568 80.5639 65.0455L80.6321 64.4091H82.0866ZM96.8892 54.3636H98.2983V62.0682C98.2983 62.8636 98.1108 63.5739 97.7358 64.1989C97.3646 64.8201 96.84 65.3106 96.1619 65.6705C95.4839 66.0265 94.6884 66.2045 93.7756 66.2045C92.8627 66.2045 92.0672 66.0265 91.3892 65.6705C90.7112 65.3106 90.1847 64.8201 89.8097 64.1989C89.4384 63.5739 89.2528 62.8636 89.2528 62.0682V54.3636H90.6619V61.9545C90.6619 62.5227 90.7869 63.0284 91.0369 63.4716C91.2869 63.911 91.643 64.2576 92.1051 64.5114C92.571 64.7614 93.1278 64.8864 93.7756 64.8864C94.4233 64.8864 94.9801 64.7614 95.446 64.5114C95.9119 64.2576 96.268 63.911 96.5142 63.4716C96.7642 63.0284 96.8892 62.5227 96.8892 61.9545V54.3636ZM102.18 62.8182L102.158 61.1591H102.43L106.249 57.2727H107.908L103.839 61.3864H103.726L102.18 62.8182ZM100.93 66V54.3636H102.271V66H100.93ZM106.476 66L103.067 61.6818L104.021 60.75L108.18 66H106.476ZM109.634 66V57.2727H110.929V58.5909H111.02C111.179 58.1591 111.467 57.8087 111.884 57.5398C112.3 57.2708 112.77 57.1364 113.293 57.1364C113.391 57.1364 113.514 57.1383 113.662 57.142C113.81 57.1458 113.921 57.1515 113.997 57.1591V58.5227C113.952 58.5114 113.848 58.4943 113.685 58.4716C113.526 58.4451 113.357 58.4318 113.179 58.4318C112.755 58.4318 112.376 58.5208 112.043 58.6989C111.713 58.8731 111.452 59.1155 111.259 59.4261C111.069 59.733 110.974 60.0833 110.974 60.4773V66H109.634ZM118.155 66.2045C117.602 66.2045 117.1 66.1004 116.649 65.892C116.198 65.6799 115.84 65.375 115.575 64.9773C115.31 64.5758 115.178 64.0909 115.178 63.5227C115.178 63.0227 115.276 62.6174 115.473 62.3068C115.67 61.9924 115.933 61.7462 116.263 61.5682C116.592 61.3902 116.956 61.2576 117.354 61.1705C117.755 61.0795 118.159 61.0076 118.564 60.9545C119.094 60.8864 119.524 60.8352 119.854 60.8011C120.187 60.7633 120.429 60.7008 120.581 60.6136C120.736 60.5265 120.814 60.375 120.814 60.1591V60.1136C120.814 59.553 120.661 59.1174 120.354 58.8068C120.051 58.4962 119.59 58.3409 118.973 58.3409C118.333 58.3409 117.831 58.4811 117.467 58.7614C117.104 59.0417 116.848 59.3409 116.7 59.6591L115.428 59.2045C115.655 58.6742 115.958 58.2614 116.337 57.9659C116.719 57.6667 117.136 57.4583 117.587 57.3409C118.041 57.2197 118.488 57.1591 118.928 57.1591C119.208 57.1591 119.53 57.1932 119.893 57.2614C120.261 57.3258 120.615 57.4602 120.956 57.6648C121.301 57.8693 121.587 58.178 121.814 58.5909C122.041 59.0038 122.155 59.5568 122.155 60.25V66H120.814V64.8182H120.746C120.655 65.0076 120.503 65.2102 120.291 65.4261C120.079 65.642 119.797 65.8258 119.445 65.9773C119.092 66.1288 118.662 66.2045 118.155 66.2045ZM118.359 65C118.89 65 119.337 64.8958 119.7 64.6875C120.068 64.4792 120.344 64.2102 120.53 63.8807C120.719 63.5511 120.814 63.2045 120.814 62.8409V61.6136C120.757 61.6818 120.632 61.7443 120.439 61.8011C120.25 61.8542 120.03 61.9015 119.78 61.9432C119.534 61.9811 119.293 62.0152 119.058 62.0455C118.827 62.072 118.64 62.0947 118.496 62.1136C118.147 62.1591 117.821 62.233 117.518 62.3352C117.219 62.4337 116.977 62.5833 116.791 62.7841C116.609 62.9811 116.518 63.25 116.518 63.5909C116.518 64.0568 116.691 64.4091 117.036 64.6477C117.384 64.8826 117.825 65 118.359 65ZM124.602 66V57.2727H125.943V66H124.602ZM125.284 55.8182C125.023 55.8182 124.797 55.7292 124.608 55.5511C124.422 55.3731 124.33 55.1591 124.33 54.9091C124.33 54.6591 124.422 54.4451 124.608 54.267C124.797 54.089 125.023 54 125.284 54C125.545 54 125.769 54.089 125.955 54.267C126.144 54.4451 126.239 54.6591 126.239 54.9091C126.239 55.1591 126.144 55.3731 125.955 55.5511C125.769 55.7292 125.545 55.8182 125.284 55.8182ZM129.74 60.75V66H128.399V57.2727H129.695V58.6364H129.808C130.013 58.1932 130.323 57.8371 130.74 57.5682C131.157 57.2955 131.695 57.1591 132.354 57.1591C132.945 57.1591 133.462 57.2803 133.905 57.5227C134.348 57.7614 134.693 58.125 134.939 58.6136C135.185 59.0985 135.308 59.7121 135.308 60.4545V66H133.967V60.5455C133.967 59.8598 133.789 59.3258 133.433 58.9432C133.077 58.5568 132.589 58.3636 131.967 58.3636C131.539 58.3636 131.157 58.4564 130.82 58.642C130.486 58.8277 130.223 59.0985 130.03 59.4545C129.837 59.8106 129.74 60.2424 129.74 60.75ZM141.418 66.1818C140.577 66.1818 139.851 65.9962 139.241 65.625C138.635 65.25 138.168 64.7273 137.838 64.0568C137.512 63.3826 137.349 62.5985 137.349 61.7045C137.349 60.8106 137.512 60.0227 137.838 59.3409C138.168 58.6553 138.626 58.1212 139.213 57.7386C139.804 57.3523 140.493 57.1591 141.281 57.1591C141.736 57.1591 142.185 57.2348 142.628 57.3864C143.071 57.5379 143.474 57.7841 143.838 58.125C144.202 58.4621 144.491 58.9091 144.707 59.4659C144.923 60.0227 145.031 60.7083 145.031 61.5227V62.0909H138.304V60.9318H143.668C143.668 60.4394 143.569 60 143.372 59.6136C143.179 59.2273 142.902 58.9223 142.543 58.6989C142.187 58.4754 141.766 58.3636 141.281 58.3636C140.747 58.3636 140.285 58.4962 139.895 58.7614C139.509 59.0227 139.211 59.3636 139.003 59.7841C138.795 60.2045 138.69 60.6553 138.69 61.1364V61.9091C138.69 62.5682 138.804 63.1269 139.031 63.5852C139.262 64.0398 139.582 64.3864 139.991 64.625C140.401 64.8598 140.876 64.9773 141.418 64.9773C141.77 64.9773 142.088 64.928 142.372 64.8295C142.66 64.7273 142.908 64.5758 143.116 64.375C143.325 64.1705 143.486 63.9167 143.599 63.6136L144.895 63.9773C144.759 64.4167 144.529 64.803 144.207 65.1364C143.885 65.4659 143.488 65.7235 143.014 65.9091C142.541 66.0909 142.009 66.1818 141.418 66.1818Z" fill="#101828"/>
<defs>
<clipPath id="clip0_12176_504">
<rect width="20" height="20" fill="white" transform="translate(20 50)"/>
</clipPath>
</defs>
</svg>
