<svg width="18" height="16" viewBox="0 0 18 16" fill="none" xmlns="http://www.w3.org/2000/svg">
<path d="M15.625 0.625H2.29167C1.37119 0.625 0.625 1.37119 0.625 2.29167V11.4583C0.625 12.3788 1.37119 13.125 2.29167 13.125H15.625C16.5455 13.125 17.2917 12.3788 17.2917 11.4583V2.29167C17.2917 1.37119 16.5455 0.625 15.625 0.625Z" stroke="#101828" stroke-width="1.25" stroke-linecap="round" stroke-linejoin="round"/>
<path d="M9.79165 3.95837H4.79165C4.33141 3.95837 3.95831 4.33147 3.95831 4.79171V8.95837C3.95831 9.41861 4.33141 9.79171 4.79165 9.79171H9.79165C10.2519 9.79171 10.625 9.41861 10.625 8.95837V4.79171C10.625 4.33147 10.2519 3.95837 9.79165 3.95837Z" stroke="#101828" stroke-width="1.25" stroke-linecap="round" stroke-linejoin="round"/>
<path d="M13.9583 3.95837V9.79171M3.95831 13.125V14.7917M13.9583 13.125V14.7917" stroke="#101828" stroke-width="1.25" stroke-linecap="round" stroke-linejoin="round"/>
</svg>
